<svg width="59" height="111" viewBox="0 0 59 111" fill="none" xmlns="http://www.w3.org/2000/svg">
<path d="M1.45312 24.7031L5.70312 24.2344C5.80729 25.099 6.07812 25.7396 6.51562 26.1562C6.95312 26.5729 7.53125 26.7812 8.25 26.7812C9.15625 26.7812 9.92708 26.3646 10.5625 25.5312C11.1979 24.6979 11.6042 22.9688 11.7812 20.3438C10.6771 21.625 9.29688 22.2656 7.64062 22.2656C5.83854 22.2656 4.28125 21.5729 2.96875 20.1875C1.66667 18.7917 1.01562 16.9792 1.01562 14.75C1.01562 12.4271 1.70312 10.5573 3.07812 9.14062C4.46354 7.71354 6.22396 7 8.35938 7C10.6823 7 12.5885 7.90104 14.0781 9.70312C15.5677 11.4948 16.3125 14.4479 16.3125 18.5625C16.3125 22.75 15.5365 25.7708 13.9844 27.625C12.4323 29.4792 10.4115 30.4062 7.92188 30.4062C6.13021 30.4062 4.68229 29.9323 3.57812 28.9844C2.47396 28.026 1.76562 26.599 1.45312 24.7031ZM11.3906 15.1094C11.3906 13.6927 11.0625 12.5938 10.4062 11.8125C9.76042 11.0312 9.01042 10.6406 8.15625 10.6406C7.34375 10.6406 6.66667 10.9635 6.125 11.6094C5.59375 12.2448 5.32812 13.2917 5.32812 14.75C5.32812 16.2292 5.61979 17.3177 6.20312 18.0156C6.78646 18.7031 7.51562 19.0469 8.39062 19.0469C9.23438 19.0469 9.94271 18.7135 10.5156 18.0469C11.099 17.3802 11.3906 16.401 11.3906 15.1094Z" fill="black"/>
<path d="M12.5938 104H8.20312V87.4531C6.59896 88.9531 4.70833 90.0625 2.53125 90.7812V86.7969C3.67708 86.4219 4.92188 85.7135 6.26562 84.6719C7.60938 83.6198 8.53125 82.3958 9.03125 81H12.5938V104Z" fill="black"/>
<path d="M46.7812 44C49 44 50.7344 44.7917 51.9844 46.375C53.474 48.25 54.2188 51.3594 54.2188 55.7031C54.2188 60.0365 53.4688 63.151 51.9688 65.0469C50.7292 66.6094 49 67.3906 46.7812 67.3906C44.5521 67.3906 42.7552 66.5365 41.3906 64.8281C40.026 63.1094 39.3438 60.0521 39.3438 55.6562C39.3438 51.3438 40.0938 48.2396 41.5938 46.3438C42.8333 44.7812 44.5625 44 46.7812 44ZM46.7812 47.6406C46.25 47.6406 45.776 47.8125 45.3594 48.1562C44.9427 48.4896 44.6198 49.0938 44.3906 49.9688C44.0885 51.1042 43.9375 53.0156 43.9375 55.7031C43.9375 58.3906 44.0729 60.2396 44.3438 61.25C44.6146 62.25 44.9531 62.9167 45.3594 63.25C45.776 63.5833 46.25 63.75 46.7812 63.75C47.3125 63.75 47.7865 63.5833 48.2031 63.25C48.6198 62.9062 48.9427 62.2969 49.1719 61.4219C49.474 60.2969 49.625 58.3906 49.625 55.7031C49.625 53.0156 49.4896 51.1719 49.2188 50.1719C48.9479 49.1615 48.6042 48.4896 48.1875 48.1562C47.7812 47.8125 47.3125 47.6406 46.7812 47.6406Z" fill="#0070F3"/>
<path d="M38 74H56" stroke="#FF8F15" stroke-width="5" stroke-linecap="round"/>
</svg>
